<svg xmlns="http://www.w3.org/2000/svg" xmlns:xlink="http://www.w3.org/1999/xlink" fill="none" version="1.1" width="23.0694580078125" height="21.58575439453125" viewBox="0 0 23.0694580078125 21.58575439453125"><g><path d="M2.51385,9.74436L1.62747,10.4579C1.22964,10.7781,0.654437,10.7471,0.293318,10.386L0.292895,10.3856C-0.124595,9.96806,-0.0913963,9.28165,0.364435,8.9064L2.74404,6.94745C2.82493,6.85,2.92398,6.76815,3.03599,6.7071L10.8276,0.292885C11.2181,-0.0976396,11.8512,-0.0976396,12.2418,0.292885L22.705,8.9064C23.1609,9.28165,23.194,9.96806,22.7766,10.3856L22.7761,10.386C22.415,10.7471,21.8398,10.7781,21.442,10.4579L20.5139,9.71077L20.5139,20.5858C20.5139,21.138,20.0661,21.5858,19.5139,21.5858L3.51386,21.5858C2.96157,21.5858,2.51385,21.138,2.51385,20.5858L2.51385,9.74436ZM4.51385,8.13446L4.51385,19.0858C4.51385,19.3619,4.73771,19.5858,5.01385,19.5858L7.51385,19.5858L7.51385,13.5858C7.51385,13.0335,7.96157,12.5858,8.51385,12.5858L14.5139,12.5858C15.0661,12.5858,15.5139,13.0335,15.5139,13.5858L15.5139,19.5858L18.0139,19.5858C18.29,19.5858,18.5139,19.3619,18.5139,19.0858L18.5139,8.10091L11.8882,2.76769C11.6929,2.57243,11.3764,2.57243,11.1811,2.76769L4.51385,8.13446ZM13.5139,19.5858L13.5139,15.0858C13.5139,14.8096,13.29,14.5858,13.0139,14.5858L10.0139,14.5858C9.73771,14.5858,9.51385,14.8096,9.51385,15.0858L9.51385,19.5858L13.5139,19.5858Z" fill-rule="evenodd" fill="#C0C7EA" fill-opacity="1"/></g></svg>