<svg xmlns="http://www.w3.org/2000/svg" xmlns:xlink="http://www.w3.org/1999/xlink" fill="none" version="1.1" width="24" height="24" viewBox="0 0 24 24"><g><g><path d="M24,12Q24,12.2946,23.9855,12.5888Q23.9711,12.883,23.9422,13.1762Q23.9133,13.4694,23.8701,13.7608Q23.8269,14.0522,23.7694,14.3411Q23.712,14.63,23.6404,14.9158Q23.5688,15.2015,23.4833,15.4834Q23.3978,15.7653,23.2985,16.0427Q23.1993,16.32,23.0866,16.5922Q22.9738,16.8644,22.8479,17.1307Q22.7219,17.397,22.5831,17.6568Q22.4442,17.9166,22.2927,18.1692Q22.1413,18.4219,21.9776,18.6668Q21.814,18.9118,21.6385,19.1484Q21.463,19.385,21.2761,19.6127Q21.0892,19.8404,20.8914,20.0587Q20.6936,20.277,20.4853,20.4853Q20.277,20.6936,20.0587,20.8914Q19.8404,21.0892,19.6127,21.2761Q19.385,21.463,19.1484,21.6385Q18.9118,21.814,18.6668,21.9776Q18.4219,22.1413,18.1692,22.2927Q17.9166,22.4442,17.6568,22.5831Q17.397,22.7219,17.1307,22.8479Q16.8644,22.9738,16.5922,23.0866Q16.32,23.1993,16.0427,23.2985Q15.7653,23.3978,15.4834,23.4833Q15.2015,23.5688,14.9158,23.6404Q14.63,23.712,14.3411,23.7694Q14.0522,23.8269,13.7608,23.8701Q13.4694,23.9133,13.1762,23.9422Q12.883,23.9711,12.5888,23.9855Q12.2946,24,12,24Q11.7054,24,11.4112,23.9855Q11.117,23.9711,10.8238,23.9422Q10.5306,23.9133,10.2392,23.8701Q9.94784,23.8269,9.65892,23.7694Q9.36999,23.712,9.08424,23.6404Q8.79848,23.5688,8.51658,23.4833Q8.23468,23.3978,7.95732,23.2985Q7.67996,23.1993,7.4078,23.0866Q7.13564,22.9738,6.86934,22.8479Q6.60304,22.7219,6.34324,22.5831Q6.08344,22.4442,5.83077,22.2927Q5.57809,22.1413,5.33316,21.9776Q5.08822,21.814,4.85161,21.6385Q4.615,21.463,4.38728,21.2761Q4.15956,21.0892,3.94129,20.8914Q3.72302,20.6936,3.51472,20.4853Q3.30642,20.277,3.10859,20.0587Q2.91076,19.8404,2.72387,19.6127Q2.53699,19.385,2.36151,19.1484Q2.18603,18.9118,2.02236,18.6668Q1.8587,18.4219,1.70726,18.1692Q1.55581,17.9166,1.41694,17.6568Q1.27808,17.397,1.15213,17.1307Q1.02618,16.8644,0.913446,16.5922Q0.800713,16.32,0.701471,16.0427Q0.602229,15.7653,0.516716,15.4834Q0.431203,15.2015,0.359625,14.9158Q0.288047,14.63,0.230577,14.3411Q0.173106,14.0522,0.129882,13.7608Q0.0866575,13.4694,0.0577833,13.1762Q0.028909,12.883,0.0144545,12.5888Q0,12.2946,0,12Q0,11.7054,0.0144545,11.4112Q0.028909,11.117,0.0577833,10.8238Q0.0866575,10.5306,0.129882,10.2392Q0.173106,9.94784,0.230577,9.65892Q0.288047,9.36999,0.359625,9.08424Q0.431203,8.79848,0.516716,8.51658Q0.602229,8.23468,0.701471,7.95732Q0.800713,7.67996,0.913446,7.4078Q1.02618,7.13564,1.15213,6.86934Q1.27808,6.60304,1.41694,6.34324Q1.55581,6.08344,1.70726,5.83077Q1.8587,5.57809,2.02236,5.33316Q2.18603,5.08822,2.36151,4.85161Q2.53699,4.615,2.72387,4.38728Q2.91076,4.15956,3.10859,3.94129Q3.30642,3.72302,3.51472,3.51472Q3.72302,3.30642,3.94129,3.10859Q4.15956,2.91076,4.38728,2.72387Q4.615,2.53699,4.85161,2.36151Q5.08822,2.18603,5.33316,2.02236Q5.57809,1.8587,5.83077,1.70726Q6.08344,1.55581,6.34324,1.41694Q6.60304,1.27808,6.86934,1.15213Q7.13564,1.02618,7.4078,0.913446Q7.67996,0.800713,7.95732,0.701471Q8.23468,0.602229,8.51658,0.516716Q8.79848,0.431203,9.08424,0.359625Q9.36999,0.288047,9.65892,0.230577Q9.94784,0.173106,10.2392,0.129882Q10.5306,0.0866575,10.8238,0.0577833Q11.117,0.028909,11.4112,0.0144545Q11.7054,0,12,0Q12.2946,0,12.5888,0.0144545Q12.883,0.028909,13.1762,0.0577833Q13.4694,0.0866575,13.7608,0.129882Q14.0522,0.173106,14.3411,0.230577Q14.63,0.288047,14.9158,0.359625Q15.2015,0.431203,15.4834,0.516716Q15.7653,0.602229,16.0427,0.701471Q16.32,0.800713,16.5922,0.913446Q16.8644,1.02618,17.1307,1.15213Q17.397,1.27808,17.6568,1.41694Q17.9166,1.55581,18.1692,1.70726Q18.4219,1.8587,18.6668,2.02236Q18.9118,2.18603,19.1484,2.36151Q19.385,2.53699,19.6127,2.72387Q19.8404,2.91076,20.0587,3.10859Q20.277,3.30642,20.4853,3.51472Q20.6936,3.72302,20.8914,3.94129Q21.0892,4.15956,21.2761,4.38728Q21.463,4.615,21.6385,4.85161Q21.814,5.08822,21.9776,5.33316Q22.1413,5.57809,22.2927,5.83077Q22.4442,6.08344,22.5831,6.34324Q22.7219,6.60304,22.8479,6.86934Q22.9738,7.13564,23.0866,7.4078Q23.1993,7.67996,23.2985,7.95732Q23.3978,8.23468,23.4833,8.51658Q23.5688,8.79848,23.6404,9.08424Q23.712,9.36999,23.7694,9.65892Q23.8269,9.94784,23.8701,10.2392Q23.9133,10.5306,23.9422,10.8238Q23.9711,11.117,23.9855,11.4112Q24,11.7054,24,12ZM22,12Q22,12.2455,21.988,12.4907Q21.9759,12.7359,21.9518,12.9802Q21.9278,13.2245,21.8918,13.4673Q21.8557,13.7101,21.8078,13.9509Q21.76,14.1917,21.7003,14.4298Q21.6407,14.6679,21.5694,14.9028Q21.4981,15.1378,21.4154,15.3689Q21.3327,15.6,21.2388,15.8268Q21.1448,16.0536,21.0399,16.2755Q20.9349,16.4975,20.8192,16.714Q20.7035,16.9305,20.5773,17.141Q20.4511,17.3516,20.3147,17.5557Q20.1783,17.7598,20.0321,17.957Q19.8858,18.1542,19.7301,18.3439Q19.5744,18.5337,19.4095,18.7156Q19.2447,18.8975,19.0711,19.0711Q18.8975,19.2447,18.7156,19.4095Q18.5337,19.5744,18.3439,19.7301Q18.1542,19.8858,17.957,20.0321Q17.7598,20.1783,17.5557,20.3147Q17.3516,20.4511,17.141,20.5773Q16.9305,20.7035,16.714,20.8192Q16.4975,20.9349,16.2755,21.0399Q16.0536,21.1448,15.8268,21.2388Q15.6,21.3327,15.3689,21.4154Q15.1378,21.4981,14.9028,21.5694Q14.6679,21.6407,14.4298,21.7003Q14.1917,21.76,13.9509,21.8078Q13.7101,21.8557,13.4673,21.8918Q13.2245,21.9278,12.9802,21.9518Q12.7359,21.9759,12.4907,21.988Q12.2455,22,12,22Q11.7545,22,11.5093,21.988Q11.2641,21.9759,11.0198,21.9518Q10.7755,21.9278,10.5327,21.8918Q10.2899,21.8557,10.0491,21.8078Q9.80833,21.76,9.5702,21.7003Q9.33207,21.6407,9.09715,21.5694Q8.86224,21.4981,8.6311,21.4154Q8.39997,21.3327,8.17317,21.2388Q7.94637,21.1448,7.72445,21.0399Q7.50253,20.9349,7.28603,20.8192Q7.06953,20.7035,6.85897,20.5773Q6.64841,20.4511,6.4443,20.3147Q6.24018,20.1783,6.04301,20.0321Q5.84583,19.8858,5.65607,19.7301Q5.4663,19.5744,5.28441,19.4095Q5.10252,19.2447,4.92893,19.0711Q4.75535,18.8975,4.59049,18.7156Q4.42563,18.5337,4.2699,18.3439Q4.11416,18.1542,3.96792,17.957Q3.82169,17.7598,3.6853,17.5557Q3.54892,17.3516,3.42271,17.141Q3.29651,16.9305,3.18079,16.714Q3.06507,16.4975,2.96011,16.2755Q2.85515,16.0536,2.7612,15.8268Q2.66726,15.6,2.58456,15.3689Q2.50186,15.1378,2.4306,14.9028Q2.35934,14.6679,2.29969,14.4298Q2.24004,14.1917,2.19215,13.9509Q2.14425,13.7101,2.10823,13.4673Q2.07221,13.2245,2.04815,12.9802Q2.02409,12.7359,2.01205,12.4907Q2,12.2455,2,12Q2,11.7545,2.01205,11.5093Q2.02409,11.2641,2.04815,11.0198Q2.07221,10.7755,2.10823,10.5327Q2.14425,10.2899,2.19215,10.0491Q2.24004,9.80833,2.29969,9.5702Q2.35934,9.33207,2.4306,9.09715Q2.50186,8.86224,2.58456,8.6311Q2.66726,8.39997,2.7612,8.17317Q2.85515,7.94637,2.96011,7.72445Q3.06507,7.50253,3.18079,7.28603Q3.29651,7.06953,3.42271,6.85897Q3.54892,6.64841,3.6853,6.4443Q3.82169,6.24018,3.96792,6.04301Q4.11416,5.84583,4.2699,5.65607Q4.42563,5.4663,4.59049,5.28441Q4.75535,5.10252,4.92893,4.92893Q5.10252,4.75535,5.28441,4.59049Q5.4663,4.42563,5.65607,4.2699Q5.84583,4.11416,6.04301,3.96792Q6.24018,3.82169,6.4443,3.6853Q6.64841,3.54892,6.85897,3.42271Q7.06953,3.29651,7.28603,3.18079Q7.50253,3.06507,7.72445,2.96011Q7.94637,2.85515,8.17317,2.7612Q8.39997,2.66726,8.6311,2.58456Q8.86224,2.50186,9.09715,2.4306Q9.33207,2.35934,9.5702,2.29969Q9.80833,2.24004,10.0491,2.19215Q10.2899,2.14426,10.5327,2.10823Q10.7755,2.07221,11.0198,2.04815Q11.2641,2.02409,11.5093,2.01205Q11.7545,2,12,2Q12.2455,2,12.4907,2.01205Q12.7359,2.02409,12.9802,2.04815Q13.2245,2.07221,13.4673,2.10823Q13.7101,2.14426,13.9509,2.19215Q14.1917,2.24004,14.4298,2.29969Q14.6679,2.35934,14.9028,2.4306Q15.1378,2.50186,15.3689,2.58456Q15.6,2.66726,15.8268,2.7612Q16.0536,2.85515,16.2755,2.96011Q16.4975,3.06507,16.714,3.18079Q16.9305,3.29651,17.141,3.42271Q17.3516,3.54892,17.5557,3.6853Q17.7598,3.82169,17.957,3.96792Q18.1542,4.11416,18.3439,4.2699Q18.5337,4.42563,18.7156,4.59049Q18.8975,4.75535,19.0711,4.92893Q19.2447,5.10252,19.4095,5.28441Q19.5744,5.4663,19.7301,5.65607Q19.8858,5.84583,20.0321,6.04301Q20.1783,6.24018,20.3147,6.4443Q20.4511,6.64841,20.5773,6.85897Q20.7035,7.06953,20.8192,7.28603Q20.9349,7.50253,21.0399,7.72445Q21.1448,7.94637,21.2388,8.17317Q21.3327,8.39997,21.4154,8.6311Q21.4981,8.86224,21.5694,9.09715Q21.6407,9.33207,21.7003,9.5702Q21.76,9.80833,21.8078,10.0491Q21.8557,10.2899,21.8918,10.5327Q21.9278,10.7755,21.9518,11.0198Q21.9759,11.2641,21.988,11.5093Q22,11.7545,22,12ZM16,5L14,5C13.4477,5,13,5.44772,13,6L13,10.5359Q12.5439,10.2726,12.0353,10.1363Q11.5266,10,11,10Q10.8035,10,10.6079,10.0193Q10.4124,10.0385,10.2196,10.0769Q10.0269,10.1152,9.83886,10.1722Q9.65082,10.2293,9.46927,10.3045Q9.28772,10.3797,9.11441,10.4723Q8.94111,10.5649,8.77772,10.6741Q8.61433,10.7833,8.46243,10.908Q8.31052,11.0326,8.17157,11.1716Q8.03262,11.3105,7.90796,11.4624Q7.78329,11.6143,7.67412,11.7777Q7.56495,11.9411,7.47231,12.1144Q7.37968,12.2877,7.30448,12.4693Q7.22928,12.6508,7.17224,12.8389Q7.11519,13.0269,7.07686,13.2196Q7.03852,13.4124,7.01926,13.6079Q7,13.8035,7,14Q7,14.1965,7.01926,14.3921Q7.03852,14.5876,7.07686,14.7804Q7.11519,14.9731,7.17224,15.1611Q7.22928,15.3492,7.30448,15.5307Q7.37968,15.7123,7.47231,15.8856Q7.56495,16.0589,7.67412,16.2223Q7.78329,16.3857,7.90796,16.5376Q8.03262,16.6895,8.17157,16.8284Q8.31052,16.9674,8.46243,17.092Q8.61433,17.2167,8.77772,17.3259Q8.94111,17.4351,9.11441,17.5277Q9.28772,17.6203,9.46927,17.6955Q9.65082,17.7707,9.83886,17.8278Q10.0269,17.8848,10.2196,17.9231Q10.4124,17.9615,10.6079,17.9807Q10.8035,18,11,18Q11.1965,18,11.3921,17.9807Q11.5876,17.9615,11.7804,17.9231Q11.9731,17.8848,12.1611,17.8278Q12.3492,17.7707,12.5307,17.6955Q12.7123,17.6203,12.8856,17.5277Q13.0589,17.4351,13.2223,17.3259Q13.3857,17.2167,13.5376,17.092Q13.6895,16.9674,13.8284,16.8284Q13.9674,16.6895,14.092,16.5376Q14.2167,16.3857,14.3259,16.2223Q14.4351,16.0589,14.5277,15.8856Q14.6203,15.7123,14.6955,15.5307Q14.7707,15.3492,14.8278,15.1611Q14.8848,14.9731,14.9231,14.7804Q14.9615,14.5876,14.9807,14.3921Q15,14.1965,15,14L15,7.5C15,7.22386,15.2239,7,15.5,7L16,7C16.5523,7,17,6.55228,17,6C17,5.44772,16.5523,5,16,5ZM12.4142,12.5858Q13,13.1716,13,14Q13,14.8284,12.4142,15.4142Q11.8284,16,11,16Q10.1716,16,9.58579,15.4142Q9,14.8284,9,14Q9,13.1716,9.58579,12.5858Q10.1716,12,11,12Q11.8284,12,12.4142,12.5858Z" fill-rule="evenodd" fill="#C0C7EA" fill-opacity="1"/></g></g></svg>